PathFileType	4	(X/Y/Z)	OpenSim_Sub08_CSBaseline_Accel.trc
DataRate	CameraRate	NumFrames	NumMarkers	Units	OrigDataRate	OrigDataStartFrame	OrigNumFrames
100	100	34	8	m	100	2048	5461
Frame#	Time	torso_imu_offset_imu	pelvis_imu_offset_imu	tibia_r_imu_offset_imu	femur_r_imu_offset_imu	tibia_l_imu_offset_imu	femur_l_imu_offset_imu	toes_r_imu_offset_imu	toes_l_imu_offset_imu
				X1	Y1	Z1	X2	Y2	Z2	X3	Y3	Z3	X4	Y4	Z4	X5	Y5	Z5	X6	Y6	Z6	X7	Y7	Z7	X8		Y8	Z8	

2048	20.47000000	8.49714200	-0.05656200	6.22453400	8.49878500	1.69293400	3.45380100	9.51771400	-1.47647600	-1.79398900	8.87840200	-2.26703600	0.56079300	1.37658600	-4.87592000	5.07079400	8.84458400	3.63927000	1.60027000	5.28803800	-2.70091800	8.02819800	3.12759700	1.81369800	12.31818400
2049	20.48000000	8.39316200	-0.05926500	6.20583100	8.54878800	1.44848200	3.44734300	9.12086700	0.54984600	-1.98344600	8.63685800	-2.08925200	0.35203400	1.91947800	-3.98466100	4.61997900	8.35092500	3.24178000	1.37470300	4.94134100	-2.89039200	7.88873200	3.08475700	-0.13904300	11.70040500
2050	20.49000000	8.25315700	-0.04779700	6.20540400	8.68802100	0.91048100	3.45069900	8.93590900	1.99286000	-1.69808000	8.55435600	-1.82718300	0.15904600	2.78461300	-3.86294700	4.13018200	9.14381300	3.03283400	1.22599700	5.06784900	-3.05348400	8.00310100	2.94163300	-1.39339700	11.12263400
2051	20.50000000	8.20235000	-0.13524900	6.20323400	8.83615000	0.30949400	3.39242600	9.23084900	2.21664400	-1.26053900	8.73232400	-1.71799500	0.01665800	3.53011900	-3.72100400	4.30340400	8.45698900	2.41896300	0.77568000	4.98642400	-2.81710400	8.16175600	2.68287100	-1.95300500	10.93759200
2052	20.51000000	8.16555700	-0.11370600	6.20113600	8.98949100	-0.20101700	3.35132900	9.57857600	1.31554100	-0.72936300	9.08844900	-1.67305800	0.03183600	4.20621700	-3.36347800	4.07918200	8.29020900	2.15944400	0.52913500	5.16147500	-2.45929200	8.04492300	2.98619800	-2.23933200	11.20378100
2053	20.52000000	8.21176700	-0.03746200	6.21331400	9.06356600	-0.40770400	3.35784400	9.74631400	0.02800000	-0.39393400	9.33995700	-1.74027500	0.11911000	4.91771900	-3.51814300	2.65291700	8.11248400	1.93209200	0.41718200	5.42864300	-2.04397600	8.45313700	3.85470400	-2.73199900	11.64473100
2054	20.53000000	8.33698500	0.01784400	6.26629400	9.04378200	-0.24793700	3.28142000	9.86069100	-0.93732800	-0.15302000	9.41179100	-1.80354600	0.25105500	5.85177100	-4.68013600	0.39681900	7.92573600	1.51911200	0.34861100	5.32397200	-1.79648200	8.45690200	4.69861400	-3.43522400	12.34226400
2055	20.54000000	8.31180200	-0.00686800	6.29248500	8.94499800	0.18019100	3.19508800	9.97736800	-1.22961000	0.01646400	9.42923100	-1.92909000	0.53226100	6.88113300	-7.24402500	-1.36335700	7.81965600	1.10465700	0.39543100	5.28783800	-1.73644100	8.42063800	6.25453600	-3.72548000	13.80514400
2056	20.55000000	8.24641500	-0.12722800	6.29335400	8.83870600	0.74183900	3.06088900	9.76260600	-0.99717300	-0.20907600	9.44779200	-1.84965000	0.62056300	7.69127000	-10.31664500	-2.20687100	7.67562300	0.60154500	0.44402100	4.99055100	-1.82120600	8.50520600	9.19041500	-3.69813800	15.67401800
2057	20.56000000	8.20122700	-0.26009000	6.35178400	8.75280800	1.29118900	2.97761800	9.56103000	-0.24576000	-0.33587300	9.41238200	-1.79046900	0.57822700	7.50779300	-10.77412000	-0.87886600	7.61562000	0.36820900	0.52057700	5.36626900	-1.90547000	8.21480300	12.37637100	-2.92479500	17.10802300
2058	20.57000000	8.27126500	-0.41111300	6.38693900	8.63935400	1.53058200	2.95966300	9.39702700	0.73187300	-0.53669200	9.25450300	-1.65478000	0.54790400	6.78528500	-8.26103700	0.96010000	7.57669400	0.42759300	0.53571500	4.88878900	-1.80913600	8.47562300	13.38241800	-2.71468100	16.60176600
2059	20.58000000	8.44658200	-0.50005000	6.43925400	8.49662200	1.59572500	2.93151300	9.60876500	1.53677900	-0.61431800	9.26425100	-1.45674700	0.48309600	7.04451000	-4.57032700	2.09364300	7.57602600	0.73673400	0.51937800	5.23125100	-1.93734600	8.29951300	13.47738700	-2.87030000	14.97369300
2060	20.59000000	8.66531800	-0.53558400	6.42101600	8.42911300	1.42007600	2.96404000	9.75535700	1.94669800	-0.69785600	9.31335200	-1.24618800	0.35297100	8.56362900	-1.93597100	2.11519800	7.47057800	1.38357900	0.54673700	5.15145600	-1.64020700	8.51547600	14.13781800	-2.19295400	13.89375600
2061	20.60000000	8.74031200	-0.56217900	6.44996200	8.49404900	1.20777600	2.96417300	9.79264900	2.17048800	-0.56324800	9.43069100	-1.14721500	0.32801500	10.35527100	-0.83397600	1.65792000	7.46685200	1.94075600	0.85914900	5.46861600	-1.43016300	8.39109200	14.99470600	-0.21670100	13.53173100
2062	20.61000000	8.68595300	-0.49080600	6.39666700	8.56231300	1.02299000	2.94573100	9.74770100	1.56760800	-0.45985200	9.48503800	-1.17728900	0.26124500	12.05286300	-0.97161700	1.20105500	7.51050000	2.45239200	1.34425500	5.24819800	-1.41488000	8.52205000	15.69574600	2.67233200	13.71579100
2063	20.62000000	8.48905600	-0.54556400	6.35663000	8.74246500	0.95956600	2.84681200	9.79652100	0.74381900	-0.52625100	9.34862000	-1.21581900	0.26549400	12.26572600	-1.56824200	1.05368300	7.58703700	3.22268400	1.85852000	5.09432100	-1.58808300	8.46296800	16.85209400	5.02227200	13.87864100
2064	20.63000000	8.53665800	-0.58621700	6.38852700	8.98829500	0.91599600	2.79219900	9.70865900	-0.05096500	-0.43037500	9.10803200	-1.29224500	0.16995700	11.14892100	-1.92955100	1.94054500	7.69319100	4.22964200	2.22446600	5.01341800	-1.57047600	8.53468700	17.17106300	5.06175900	12.71187200
2065	20.64000000	8.68322100	-0.60138400	6.38743300	9.24362500	0.95964700	2.87814300	9.68083800	-0.74740800	-0.65873300	8.99115900	-1.26186000	0.03855100	10.16633600	-1.20456300	3.26574200	7.33978000	5.21394300	2.21351800	4.99828400	-1.55256900	8.43691300	17.11330700	3.02273000	10.42276100
2066	20.65000000	8.92148900	-0.62362600	6.48057500	9.41021600	1.00743300	3.18483900	9.88637500	-1.00570000	-0.79824400	9.07146800	-1.33258900	-0.14619900	9.55142400	0.27378800	3.23690600	7.82079100	6.32202200	2.16295300	4.95443000	-1.63001200	8.56075800	17.34156300	1.56406100	8.49352000
2067	20.66000000	9.10546000	-0.56407600	6.55536000	9.41168300	0.94608700	3.33716000	9.73098200	-0.82758800	-0.91655000	9.09872200	-1.26129300	-0.29623100	10.56791800	1.69836200	2.73947500	7.64250900	7.12872000	1.96879900	5.10919500	-1.67100300	8.49246000	17.58171600	2.32038500	7.85802500
2068	20.67000000	9.06170800	-0.49372400	6.53798800	9.30918300	0.98114200	3.42825600	9.51573400	0.03847800	-0.68338200	9.00993200	-1.05510000	-0.30401900	11.88779000	2.29466600	1.72206100	7.67758600	7.27226800	1.88425200	4.84328100	-1.53289200	8.68402800	17.82306600	2.46782000	6.61333900
2069	20.68000000	8.97893400	-0.46393600	6.51955500	9.15070100	0.91436600	3.31948300	9.44810700	1.05627600	-0.52978200	9.16605500	-0.83701500	-0.16827600	12.46352600	2.37950500	1.03896600	7.25029100	7.03141900	2.10053500	5.03150500	-1.55883500	8.60816400	17.59810900	2.29839100	5.09195200
2070	20.69000000	9.00296900	-0.43279500	6.47127600	8.99403300	0.95285400	3.11242900	9.47371400	1.47511400	-0.58509600	9.12956300	-0.60613900	-0.04632600	12.32162000	1.69189900	0.63363100	8.06166700	7.14364100	2.28137500	5.46977600	-1.22033700	8.40931600	16.88034800	1.34090200	3.11423800
2071	20.70000000	9.06702600	-0.46099100	6.46412100	8.96855500	0.99234500	3.08056600	9.40184500	1.26870200	-0.55383100	8.96788600	-0.43824600	0.05276900	11.82573500	0.96242300	0.69707900	8.01261500	7.21251600	2.80877600	5.13315800	-1.33855800	8.59559500	16.29842500	0.59604600	1.33584900
2072	20.71000000	9.03668900	-0.42673200	6.40667100	8.96740300	1.07089800	2.98002900	9.38070600	0.91100300	-0.66235900	9.00932100	-0.49052300	-0.04545500	10.71267600	0.35232900	0.81975300	8.19698800	8.16208500	3.45252500	4.85957900	-1.59705500	8.66068400	15.64094100	0.04348200	-0.01005800
2073	20.72000000	9.05836700	-0.33987900	6.40204500	9.08398400	1.08220000	2.84888800	9.56385500	0.63568000	-0.90089000	9.05865900	-0.80359900	-0.15653900	9.86258000	-0.10759900	0.81750500	8.03710100	8.69114100	4.06720600	4.94801000	-1.84269000	8.59853500	15.17583400	-0.72833900	-1.01804800
2074	20.73000000	9.11427300	-0.27210900	6.38176700	9.26244400	1.31826300	2.87277300	9.63658400	0.65104600	-1.10291100	9.08474000	-1.16132600	-0.24402200	9.18714700	-0.25778500	0.88230300	7.81949100	8.55816700	4.56167900	5.00544700	-1.82922400	8.50078800	15.26496600	-1.40689600	-1.50937200
2075	20.74000000	9.15552600	-0.22040200	6.31167200	9.36469100	1.37864100	2.82491400	9.67585000	1.11371000	-1.45255000	9.21258500	-1.42210800	-0.34872700	8.86429700	-0.16802900	0.55985100	7.73506600	8.24641200	4.67912100	4.84951700	-1.83305000	8.73697900	15.52529900	-2.18608600	-1.78812100
2076	20.75000000	9.12438600	-0.11338300	6.24578800	9.46033900	1.43248300	2.72232700	9.81225700	1.87317600	-1.26890800	9.27138100	-1.50330300	-0.53388200	8.78199800	-0.31956000	0.24778000	7.51350200	7.64430900	3.98538100	5.08032500	-1.66577000	8.75714500	15.11876000	-2.60292900	-1.74530700
2077	20.76000000	9.17414700	-0.04478400	6.25196700	9.51908800	1.54907900	2.57412900	9.91032100	2.75728900	-1.22762800	9.31480700	-1.44797700	-0.76779400	8.57994200	-0.89083500	-0.31319000	7.47204900	6.53064700	2.69741500	5.22431400	-1.67876300	8.62995800	14.44155700	-2.53777300	-1.11376200
2078	20.77000000	9.27038400	-0.00732100	6.17311400	9.64090400	1.67684600	2.38015400	9.93464500	3.35610700	-0.98384500	9.38653600	-1.37681200	-0.87849700	8.54813600	-1.65924800	-0.78106900	7.16626700	5.55449100	1.37620900	4.82441900	-1.38786000	9.08727600	12.96056900	-1.95381800	0.00066100
2079	20.78000000	9.34329300	-0.07519300	6.13426300	9.84536600	1.80659600	2.38919300	10.22693500	3.35118600	-0.51304200	9.77908400	-1.45470100	-0.87161300	8.84506300	-2.09398200	-0.71360400	6.82668500	4.79715400	0.14894900	4.87641800	-0.50157400	9.63796900	9.19910500	1.35838300	0.59058600
2080	20.79000000	9.58277500	-0.14840600	6.20600600	10.08266600	1.89646100	2.37027100	10.84690200	2.80644600	0.05857700	10.30555400	-1.61693300	-0.89817400	9.59167000	-1.49803400	-1.02923000	7.12873800	4.35262100	-0.51742200	4.86362800	-1.12132500	9.33530600	5.19918300	-0.55723400	4.78336900
2081	20.80000000	10.08117000	-0.20853600	6.22847300	10.47711800	1.93224500	2.64064800	11.46873200	1.77622200	-0.22818300	10.35784500	-2.04270000	-0.88010900	10.23518400	-1.78292900	0.00241600	8.08898600	3.77730900	-0.43780400	4.66128500	-0.94164700	9.50816900	5.95705500	0.69582000	18.76241300
